<svg width="16" height="32" viewBox="0 0 16 32" fill="none" xmlns="http://www.w3.org/2000/svg">
<path d="M1 0.5H12.18" stroke="#545589"/>
<path d="M12.522 19.2604C13.6986 19.2604 14.6524 18.3066 14.6524 17.13C14.6524 15.9534 13.6986 14.9996 12.522 14.9996C11.3454 14.9996 10.3916 15.9534 10.3916 17.13C10.3916 18.3066 11.3454 19.2604 12.522 19.2604Z" stroke="#545589" stroke-width="2"/>
<path d="M12.522 31.0004C13.6986 31.0004 14.6524 30.0466 14.6524 28.87C14.6524 27.6934 13.6986 26.7396 12.522 26.7396C11.3454 26.7396 10.3916 27.6934 10.3916 28.87C10.3916 30.0466 11.3454 31.0004 12.522 31.0004Z" stroke="#545589" stroke-width="2"/>
<path d="M3.13 24.7394C4.30661 24.7394 5.26044 23.7856 5.26044 22.609C5.26044 21.4324 4.30661 20.4786 3.13 20.4786C1.9534 20.4786 0.999573 21.4324 0.999573 22.609C0.999573 23.7856 1.9534 24.7394 3.13 24.7394Z" stroke="#545589" stroke-width="2"/>
<path d="M10.401 18.759L5.228 22.016" stroke="#545589" stroke-width="2"/>
<path d="M10.118 27.494L4.94501 24.238" stroke="#545589" stroke-width="2"/>
</svg>
